<svg width="28" height="28" viewBox="0 0 28 28" fill="none" xmlns="http://www.w3.org/2000/svg">
<path d="M18.9762 8.19689L17.8 7.02062L8.1553 16.665C6.95748 17.8629 6.95748 19.8119 8.1553 21.0098C9.35312 22.2077 11.3022 22.2077 12.5001 21.0098L25.4529 8.05656C26.3443 7.16516 26.8352 5.98002 26.8352 4.71942C26.8352 3.45882 26.3443 2.27369 25.4529 1.38228C24.5616 0.49093 23.3764 0 22.1158 0C20.8551 0 19.67 0.49093 18.7786 1.38234L3.02988 17.1311C1.8273 18.3337 1.16504 19.9325 1.16504 21.6331C1.16504 23.3338 1.8273 24.9326 3.02988 26.1352C4.23246 27.3377 5.8313 28 7.53192 28C9.23254 28 10.8314 27.3377 12.034 26.1352L24.4742 13.6948L23.298 12.5186L10.8577 24.9589C9.96934 25.8473 8.78826 26.3365 7.53192 26.3365C6.27559 26.3365 5.0945 25.8473 4.2061 24.9589C3.3177 24.0705 2.82852 22.8895 2.82852 21.6331C2.82852 20.3768 3.31781 19.1956 4.2061 18.3073L19.9549 2.55855C21.1464 1.36708 23.0852 1.36708 24.2767 2.55855C25.4683 3.75009 25.4683 5.68887 24.2767 6.8804L11.3239 19.8335C10.7746 20.3828 9.88086 20.3828 9.33158 19.8335C8.7823 19.2842 8.7823 18.3905 9.33158 17.8412L18.9762 8.19689Z" fill="#192E49"/>
</svg>
