<svg width="44" height="44" viewBox="0 0 44 44" fill="none" xmlns="http://www.w3.org/2000/svg">
<circle cx="22" cy="22" r="22" fill="#2F86EB"/>
<path d="M21.9989 32.9983C20.8953 32.9985 20.0006 32.104 20.0005 31.0005L19.9997 20.9971C19.9996 19.8933 20.8943 18.9985 21.998 18.9985C23.1017 18.9985 23.9964 19.8932 23.9964 20.9969L23.9964 31.0003C23.9964 32.1036 23.1021 32.9981 21.9989 32.9983Z" fill="white"/>
<path d="M20 14C20 12.8954 20.8954 12 22 12C23.1046 12 24 12.8954 24 14C24 15.1046 23.1046 16 22 16C20.8954 16 20 15.1046 20 14Z" fill="white"/>
</svg>
