<svg width="25" height="26" viewBox="0 0 25 26" fill="none" xmlns="http://www.w3.org/2000/svg">
<path d="M6.15234 11.4844C5.613 11.4844 5.17578 11.0472 5.17578 10.5078C5.17578 9.96847 5.613 9.53125 6.15234 9.53125C6.69168 9.53125 7.12891 9.96847 7.12891 10.5078C7.12891 11.0472 6.69168 11.4844 6.15234 11.4844Z" fill="#0071BC"/>
<path d="M6.15234 15.7031C5.613 15.7031 5.17578 15.2659 5.17578 14.7266C5.17578 14.1872 5.613 13.75 6.15234 13.75C6.69168 13.75 7.12891 14.1872 7.12891 14.7266C7.12891 15.2659 6.69168 15.7031 6.15234 15.7031Z" fill="#0071BC"/>
<path d="M6.15234 19.9531C5.613 19.9531 5.17578 19.5159 5.17578 18.9766C5.17578 18.4372 5.613 18 6.15234 18C6.69168 18 7.12891 18.4372 7.12891 18.9766C7.12891 19.5159 6.69168 19.9531 6.15234 19.9531Z" fill="#0071BC"/>
<path d="M3.90625 2.20703H5.17578V1.23047C5.17578 0.691113 5.61299 0.253906 6.15234 0.253906C6.6917 0.253906 7.12891 0.691113 7.12891 1.23047V2.20703H11.5723V1.23047C11.5723 0.691113 12.0095 0.253906 12.5488 0.253906C13.0882 0.253906 13.5254 0.691113 13.5254 1.23047V2.20703H17.9199V1.23047C17.9199 0.691113 18.3571 0.253906 18.8965 0.253906C19.4358 0.253906 19.873 0.691113 19.873 1.23047V2.20703H21.0938C23.2477 2.20703 25 3.95937 25 6.11328V21.3477C25 23.5016 23.2477 25.2539 21.0938 25.2539H1C0.460644 25.2539 0.0234375 24.8167 0.0234375 24.2773C0.0234375 23.738 0.460644 23.3008 1 23.3008H21.0938C22.1707 23.3008 23.0469 22.4246 23.0469 21.3477V6.11328C23.0469 5.03633 22.1707 4.16016 21.0938 4.16016H19.873V5.13672C19.873 5.67607 19.4358 6.11328 18.8965 6.11328C18.3571 6.11328 17.9199 5.67607 17.9199 5.13672V4.16016H13.5254V5.13672C13.5254 5.67607 13.0882 6.11328 12.5488 6.11328C12.0095 6.11328 11.5723 5.67607 11.5723 5.13672V4.16016H7.12891V5.13672C7.12891 5.67607 6.6917 6.11328 6.15234 6.11328C5.61299 6.11328 5.17578 5.67607 5.17578 5.13672V4.16016H3.90625C2.8293 4.16016 1.95312 5.03633 1.95312 6.11328V24.2771C1.95312 24.8164 1.51592 25.2536 0.976562 25.2536C0.437206 25.2536 0 24.8164 0 24.2771V6.11328C0 3.95937 1.75234 2.20703 3.90625 2.20703Z" fill="#0071BC"/>
<path d="M10.3984 11.4844C9.8591 11.4844 9.42188 11.0472 9.42188 10.5078C9.42188 9.96847 9.8591 9.53125 10.3984 9.53125C10.9378 9.53125 11.375 9.96847 11.375 10.5078C11.375 11.0472 10.9378 11.4844 10.3984 11.4844Z" fill="#0071BC"/>
<path d="M10.3984 15.7031C9.8591 15.7031 9.42188 15.2659 9.42188 14.7266C9.42188 14.1872 9.8591 13.75 10.3984 13.75C10.9378 13.75 11.375 14.1872 11.375 14.7266C11.375 15.2659 10.9378 15.7031 10.3984 15.7031Z" fill="#0071BC"/>
<path d="M10.3984 19.9531C9.8591 19.9531 9.42188 19.5159 9.42188 18.9766C9.42188 18.4372 9.8591 18 10.3984 18C10.9378 18 11.375 18.4372 11.375 18.9766C11.375 19.5159 10.9378 19.9531 10.3984 19.9531Z" fill="#0071BC"/>
<path d="M14.6484 15.7324C14.1091 15.7324 13.6719 15.2952 13.6719 14.7559C13.6719 14.2165 14.1091 13.7793 14.6484 13.7793C15.1878 13.7793 15.625 14.2165 15.625 14.7559C15.625 15.2952 15.1878 15.7324 14.6484 15.7324Z" fill="#0071BC"/>
<path d="M18.8984 11.4844C18.3591 11.4844 17.9219 11.0472 17.9219 10.5078C17.9219 9.96847 18.3591 9.53125 18.8984 9.53125C19.4378 9.53125 19.875 9.96847 19.875 10.5078C19.875 11.0472 19.4378 11.4844 18.8984 11.4844Z" fill="#0071BC"/>
<path d="M18.8984 15.7324C18.3591 15.7324 17.9219 15.2952 17.9219 14.7559C17.9219 14.2165 18.3591 13.7793 18.8984 13.7793C19.4378 13.7793 19.875 14.2165 19.875 14.7559C19.875 15.2952 19.4378 15.7324 18.8984 15.7324Z" fill="#0071BC"/>
<path d="M18.8984 19.9805C18.3591 19.9805 17.9219 19.5432 17.9219 19.0039C17.9219 18.4646 18.3591 18.0273 18.8984 18.0273C19.4378 18.0273 19.875 18.4646 19.875 19.0039C19.875 19.5432 19.4378 19.9805 18.8984 19.9805Z" fill="#0071BC"/>
<path d="M14.6484 19.9805C14.1091 19.9805 13.6719 19.5432 13.6719 19.0039C13.6719 18.4646 14.1091 18.0273 14.6484 18.0273C15.1878 18.0273 15.625 18.4646 15.625 19.0039C15.625 19.5432 15.1878 19.9805 14.6484 19.9805Z" fill="#0071BC"/>
<path d="M14.6484 11.4844C14.1091 11.4844 13.6719 11.0472 13.6719 10.5078C13.6719 9.96847 14.1091 9.53125 14.6484 9.53125C15.1878 9.53125 15.625 9.96847 15.625 10.5078C15.625 11.0472 15.1878 11.4844 14.6484 11.4844Z" fill="#0071BC"/>
</svg>
