<svg width="14" height="14" viewBox="0 0 14 14" fill="none" xmlns="http://www.w3.org/2000/svg">
<path d="M7.00058 10.0632C7.44218 10.0632 7.87387 9.93223 8.24106 9.68691C8.60826 9.44159 8.89447 9.0929 9.06351 8.68493C9.23254 8.27696 9.27682 7.82803 9.19074 7.3949C9.10466 6.96177 8.89209 6.56388 8.5799 6.25155C8.26771 5.93922 7.86992 5.72647 7.43683 5.6402C7.00373 5.55392 6.55478 5.598 6.14674 5.76686C5.73869 5.93572 5.38988 6.22177 5.14439 6.58885C4.89891 6.95594 4.76778 7.38757 4.76758 7.82917C4.76745 8.12249 4.82511 8.41297 4.93727 8.68401C5.04943 8.95504 5.21389 9.20133 5.42126 9.40878C5.62862 9.61624 5.87483 9.78082 6.14582 9.8931C6.4168 10.0054 6.70725 10.0632 7.00058 10.0632Z" fill="white"/>
<path d="M4.90748 0.850098L3.62948 2.2501H1.42148C1.05156 2.25009 0.696675 2.39649 0.434353 2.65732C0.17203 2.91814 0.0235982 3.27218 0.0214844 3.6421V12.0181C0.0214844 12.3894 0.168984 12.7455 0.431535 13.008C0.694086 13.2706 1.05018 13.4181 1.42148 13.4181H12.5845C12.9558 13.4181 13.3119 13.2706 13.5744 13.008C13.837 12.7455 13.9845 12.3894 13.9845 12.0181V3.6421C13.9845 3.27079 13.837 2.9147 13.5744 2.65215C13.3119 2.3896 12.9558 2.2421 12.5845 2.2421H10.3725L9.09548 0.850098H4.90748ZM7.00148 11.3191C6.31123 11.3191 5.63647 11.1144 5.06254 10.7309C4.48862 10.3474 4.04129 9.80238 3.77714 9.16466C3.513 8.52695 3.44388 7.82523 3.57854 7.14823C3.71321 6.47124 4.0456 5.84938 4.53368 5.3613C5.02177 4.87321 5.64363 4.54082 6.32062 4.40616C6.99761 4.27149 7.69934 4.34061 8.33705 4.60476C8.97476 4.86891 9.51983 5.31623 9.90331 5.89016C10.2868 6.46409 10.4915 7.13884 10.4915 7.8291C10.4912 8.75462 10.1234 9.64216 9.46899 10.2966C8.81455 10.9511 7.92701 11.3188 7.00148 11.3191Z" fill="white"/>
</svg>
