<svg width="34" height="34" viewBox="0 0 34 34" fill="none" xmlns="http://www.w3.org/2000/svg">
<path d="M14.6953 2.76582C15.8947 1.32647 18.1053 1.32647 19.3047 2.76582L20.6955 4.4348C21.3267 5.19232 22.2899 5.59128 23.2719 5.50198L25.4354 5.30523C27.3013 5.13556 28.8644 6.69873 28.6948 8.5646L28.498 10.7281C28.4087 11.7101 28.8077 12.6733 29.5652 13.3045L31.2342 14.6953C32.6735 15.8947 32.6735 18.1053 31.2342 19.3047L29.5652 20.6955C28.8077 21.3267 28.4087 22.2899 28.498 23.2719L28.6948 25.4354C28.8644 27.3013 27.3013 28.8644 25.4354 28.6948L23.2719 28.498C22.2899 28.4087 21.3267 28.8077 20.6955 29.5652L19.3047 31.2342C18.1053 32.6735 15.8947 32.6735 14.6953 31.2342L13.3045 29.5652C12.6733 28.8077 11.7101 28.4087 10.7281 28.498L8.5646 28.6948C6.69873 28.8644 5.13556 27.3013 5.30523 25.4354L5.50198 23.2719C5.59128 22.2899 5.19232 21.3267 4.4348 20.6955L2.76582 19.3047C1.32647 18.1053 1.32647 15.8947 2.76582 14.6953L4.4348 13.3045C5.19232 12.6733 5.59128 11.7101 5.50198 10.7281L5.30523 8.5646C5.13556 6.69873 6.69873 5.13556 8.5646 5.30523L10.7281 5.50198C11.7101 5.59128 12.6733 5.19232 13.3045 4.4348L14.6953 2.76582Z" fill="#00A1F1"/>
<path d="M23 13.6982L20.8919 12L14.9775 18.4746L11.8739 15.6618L10 17.3601L15.2117 22.0833L23 13.6982Z" fill="white"/>
</svg>
