<svg width="24" height="18" viewBox="0 0 24 18" fill="none" xmlns="http://www.w3.org/2000/svg">
<path d="M11.4327 13.0293C10.394 12.6653 9.318 12.6207 9 11.6667V10.3333C9.3 10.1847 10.1573 9.16333 10.248 8.36533C10.3013 8.17667 10.3427 7.502 10.3427 7.35C10.3427 6.51733 10.33 4.796 10.8513 3.44867C10.6693 2.54333 10.194 1.78067 9.17467 1.68C8.902 1.22867 8.20333 1 7.29467 1C3.66067 1.06267 3.28933 3.582 4.01867 6.476C3.87733 6.55733 3.644 6.816 3.70267 7.27467C3.812 8.13 4.18267 8.34667 4.41867 8.36467C4.50867 9.16333 5.36667 10.1847 5.66667 10.3333V11.6667C5 13.6667 1 11.6667 1 17H9C9 14.6347 10.3267 13.6153 11.4327 13.0293Z" stroke="#0071BC" stroke-width="1.5"/>
<path d="M12.334 16.9993C12.334 13.666 15.6673 14.3327 16.334 12.528V11.678C13.92 11.678 13.25 10.684 13.25 10.684C14.5113 9.63468 12.126 2.33268 16.4207 2.33268C16.4207 2.33268 17.0007 1.66602 17.75 1.66602C23.0007 1.66602 20.6313 9.59468 21.9893 10.7093C21.9893 10.7093 21.4267 11.6693 19.0007 11.6693V12.528C19.6673 14.3327 23.0007 13.666 23.0007 16.9993H12.334Z" stroke="#0071BC" stroke-width="1.5"/>
</svg>
