<svg width="16" height="16" viewBox="0 0 16 16" fill="none" xmlns="http://www.w3.org/2000/svg">
<path d="M0.97606 7.60586C0.898044 7.49444 0.829779 7.32603 0.79108 6.9589C0.750974 6.57841 0.75 6.07827 0.75 5.33333V3.55556C0.75 2.81062 0.750974 2.31048 0.79108 1.92999C0.829779 1.56286 0.898044 1.39445 0.97606 1.28303C1.0597 1.16359 1.16359 1.0597 1.28303 0.97606C1.39445 0.898044 1.56286 0.829778 1.92999 0.79108C2.31048 0.750974 2.81062 0.75 3.55556 0.75C4.30049 0.75 4.80063 0.750974 5.18112 0.79108C5.54825 0.829778 5.71666 0.898044 5.82808 0.97606C5.94753 1.0597 6.05141 1.16358 6.13505 1.28303C6.21307 1.39445 6.28133 1.56286 6.32003 1.92999C6.36014 2.31048 6.36111 2.81062 6.36111 3.55556V5.33333C6.36111 6.07827 6.36014 6.57841 6.32003 6.9589C6.28133 7.32603 6.21307 7.49444 6.13505 7.60586C6.05141 7.7253 5.94753 7.82919 5.82808 7.91283C5.71666 7.99085 5.54826 8.05911 5.18112 8.09781C4.80063 8.13792 4.30049 8.13889 3.55556 8.13889C2.81062 8.13889 2.31048 8.13792 1.92999 8.09781C1.56286 8.05911 1.39445 7.99085 1.28303 7.91283C1.16359 7.82919 1.0597 7.7253 0.97606 7.60586ZM9.86495 14.717C9.78693 14.6056 9.71867 14.4371 9.67997 14.07C9.63986 13.6895 9.63889 13.1894 9.63889 12.4444V10.6667C9.63889 9.92173 9.63986 9.42159 9.67997 9.0411C9.71867 8.67397 9.78693 8.50556 9.86495 8.39414C9.94858 8.2747 10.0525 8.17081 10.1719 8.08717C10.2833 8.00916 10.4517 7.94089 10.8189 7.90219C11.1994 7.86209 11.6995 7.86111 12.4444 7.86111C13.1894 7.86111 13.6895 7.86209 14.07 7.90219C14.4371 7.94089 14.6056 8.00916 14.717 8.08717C14.8364 8.17081 14.9403 8.2747 15.0239 8.39414C15.102 8.50556 15.1702 8.67397 15.2089 9.0411C15.249 9.42159 15.25 9.92173 15.25 10.6667V12.4444C15.25 13.1894 15.249 13.6895 15.2089 14.07C15.1702 14.4371 15.102 14.6056 15.0239 14.717C14.9403 14.8364 14.8364 14.9403 14.717 15.0239C14.6056 15.102 14.4371 15.1702 14.07 15.2089C13.6895 15.249 13.1894 15.25 12.4444 15.25C11.6995 15.25 11.1994 15.249 10.8189 15.2089C10.4517 15.1702 10.2833 15.102 10.1719 15.0239C10.0525 14.9403 9.94858 14.8364 9.86495 14.717Z" stroke="#0071BC" stroke-width="1.5"/>
<path d="M2 15.25C1.30964 15.25 0.75 14.6904 0.75 14V12.6667C0.75 11.9763 1.30964 11.4167 2 11.4167H5.11111C5.80147 11.4167 6.36111 11.9763 6.36111 12.6667V14C6.36111 14.6904 5.80147 15.25 5.11111 15.25H2ZM9.63889 2C9.63889 1.30964 10.1985 0.75 10.8889 0.75H14C14.6904 0.75 15.25 1.30964 15.25 2V3.33333C15.25 4.02369 14.6904 4.58333 14 4.58333H10.8889C10.1985 4.58333 9.63889 4.02369 9.63889 3.33333V2Z" stroke="#0071BC" stroke-width="1.5"/>
</svg>
