<svg width="36" height="38" viewBox="0 0 36 38" fill="none" xmlns="http://www.w3.org/2000/svg">
<path d="M13.9375 8.44677C13.6226 8.44677 13.3205 8.57551 13.0978 8.80466C12.8751 9.03381 12.75 9.3446 12.75 9.66866C12.75 9.99273 12.8751 10.3035 13.0978 10.5327C13.3205 10.7618 13.6226 10.8906 13.9375 10.8906C14.2524 10.8906 14.5545 10.7618 14.7772 10.5327C14.9999 10.3035 15.125 9.99273 15.125 9.66866C15.125 9.3446 14.9999 9.03381 14.7772 8.80466C14.5545 8.57551 14.2524 8.44677 13.9375 8.44677ZM10.5769 8.44677C10.8222 7.73132 11.2772 7.11178 11.8791 6.67355C12.481 6.23533 13.2002 6 13.9375 6C14.6748 6 15.394 6.23533 15.9959 6.67355C16.5978 7.11178 17.0528 7.73132 17.2981 8.44677H27.8125C28.1274 8.44677 28.4295 8.57551 28.6522 8.80466C28.8749 9.03381 29 9.3446 29 9.66866C29 9.99273 28.8749 10.3035 28.6522 10.5327C28.4295 10.7618 28.1274 10.8906 27.8125 10.8906H17.2981C17.0528 11.606 16.5978 12.2255 15.9959 12.6638C15.394 13.102 14.6748 13.3373 13.9375 13.3373C13.2002 13.3373 12.481 13.102 11.8791 12.6638C11.2772 12.2255 10.8222 11.606 10.5769 10.8906H7.1875C6.87256 10.8906 6.57051 10.7618 6.34781 10.5327C6.12511 10.3035 6 9.99273 6 9.66866C6 9.3446 6.12511 9.03381 6.34781 8.80466C6.57051 8.57551 6.87256 8.44677 7.1875 8.44677H10.5769ZM21.0625 17.7781C20.7476 17.7781 20.4455 17.9068 20.2228 18.136C20.0001 18.3651 19.875 18.6759 19.875 19C19.875 19.3241 20.0001 19.6349 20.2228 19.864C20.4455 20.0932 20.7476 20.2219 21.0625 20.2219C21.3774 20.2219 21.6795 20.0932 21.9022 19.864C22.1249 19.6349 22.25 19.3241 22.25 19C22.25 18.6759 22.1249 18.3651 21.9022 18.136C21.6795 17.9068 21.3774 17.7781 21.0625 17.7781ZM17.7019 17.7781C17.9472 17.0627 18.4022 16.4431 19.0041 16.0049C19.606 15.5667 20.3252 15.3313 21.0625 15.3313C21.7998 15.3313 22.519 15.5667 23.1209 16.0049C23.7228 16.4431 24.1778 17.0627 24.4231 17.7781H27.8125C28.1274 17.7781 28.4295 17.9068 28.6522 18.136C28.8749 18.3651 29 18.6759 29 19C29 19.3241 28.8749 19.6349 28.6522 19.864C28.4295 20.0932 28.1274 20.2219 27.8125 20.2219H24.4231C24.1778 20.9373 23.7228 21.5569 23.1209 21.9951C22.519 22.4333 21.7998 22.6687 21.0625 22.6687C20.3252 22.6687 19.606 22.4333 19.0041 21.9951C18.4022 21.5569 17.9472 20.9373 17.7019 20.2219H7.1875C6.87256 20.2219 6.57051 20.0932 6.34781 19.864C6.12511 19.6349 6 19.3241 6 19C6 18.6759 6.12511 18.3651 6.34781 18.136C6.57051 17.9068 6.87256 17.7781 7.1875 17.7781H17.7019ZM13.9375 27.1094C13.6226 27.1094 13.3205 27.2382 13.0978 27.4673C12.8751 27.6965 12.75 28.0073 12.75 28.3313C12.75 28.6554 12.8751 28.9662 13.0978 29.1953C13.3205 29.4245 13.6226 29.5532 13.9375 29.5532C14.2524 29.5532 14.5545 29.4245 14.7772 29.1953C14.9999 28.9662 15.125 28.6554 15.125 28.3313C15.125 28.0073 14.9999 27.6965 14.7772 27.4673C14.5545 27.2382 14.2524 27.1094 13.9375 27.1094ZM10.5769 27.1094C10.8222 26.394 11.2772 25.7745 11.8791 25.3362C12.481 24.898 13.2002 24.6627 13.9375 24.6627C14.6748 24.6627 15.394 24.898 15.9959 25.3362C16.5978 25.7745 17.0528 26.394 17.2981 27.1094H27.8125C28.1274 27.1094 28.4295 27.2382 28.6522 27.4673C28.8749 27.6965 29 28.0073 29 28.3313C29 28.6554 28.8749 28.9662 28.6522 29.1953C28.4295 29.4245 28.1274 29.5532 27.8125 29.5532H17.2981C17.0528 30.2687 16.5978 30.8882 15.9959 31.3264C15.394 31.7647 14.6748 32 13.9375 32C13.2002 32 12.481 31.7647 11.8791 31.3264C11.2772 30.8882 10.8222 30.2687 10.5769 29.5532H7.1875C6.87256 29.5532 6.57051 29.4245 6.34781 29.1953C6.12511 28.9662 6 28.6554 6 28.3313C6 28.0073 6.12511 27.6965 6.34781 27.4673C6.57051 27.2382 6.87256 27.1094 7.1875 27.1094H10.5769Z" fill="#A5A5A5"/>
</svg>
