<svg width="251" height="136" viewBox="0 0 251 136" fill="none" xmlns="http://www.w3.org/2000/svg">
<path d="M12.3408 96.5162V96.9779C11.945 97.1758 11.2194 96.846 11.2194 97.8354C11.1534 98.0333 11.1534 99.1547 11.1534 99.3526V118.812C11.1534 118.944 11.2854 119.867 11.3513 120.065C11.7471 120.593 12.0769 120.461 12.6046 120.593V121.121H2.7101V120.659C3.03992 120.593 3.69955 120.659 3.96341 119.867C4.02937 119.735 4.02937 118.614 4.02937 118.416V98.693C4.02937 97.2418 4.22726 97.3737 2.51221 96.9779V96.4502H12.3408V96.5162Z" fill="#89C540"/>
<path d="M27.4457 100.54L27.3797 101.068L26.4563 101.596C26.4563 101.925 26.6541 102.123 27.2478 102.783L34.8336 110.896V105.092C34.8336 104.696 34.8336 104.3 34.8336 103.904C34.8336 103.508 34.8336 103.047 34.8336 102.651C34.8336 102.519 34.8336 101.596 34.7677 101.398C34.3719 100.804 34.108 101.002 33.5803 100.87V100.408H41.8258V100.936C41.2321 101.002 41.0342 100.804 40.5725 101.398C40.4405 101.662 40.5065 102.453 40.5065 102.783V119.999L41.8258 120.527V121.055H33.1845L33.2505 120.461L34.5038 119.867V119.538L23.1581 107.4V116.767C23.1581 116.965 23.1581 117.295 23.1581 117.559V118.68C23.1581 118.68 23.1581 119.802 23.224 119.933C23.356 120.395 23.6858 120.461 24.3454 120.461V120.989H16.4298V120.461H17.2873L17.5512 119.999V102.783C17.5512 102.651 17.6171 101.53 17.4852 101.464C17.0894 100.804 16.8256 101.068 16.2979 100.936V100.408H27.4457V100.54Z" fill="#89C540"/>
<path d="M56.7997 100.54L56.7337 101.068L55.8102 101.596C55.8102 101.925 56.0081 102.123 56.6018 102.783L64.1876 110.896V105.092C64.1876 104.696 64.1876 104.3 64.1876 103.904C64.1876 103.508 64.1876 103.047 64.1876 102.651C64.1876 102.519 64.1876 101.596 64.1216 101.398C63.7258 100.804 63.462 101.002 62.9343 100.87V100.408H71.1797V100.936C70.5861 101.002 70.3882 100.804 69.9264 101.398C69.7945 101.662 69.8605 102.453 69.8605 102.783V119.999L71.1797 120.527V121.055H62.4725L62.5385 120.461L63.7918 119.867V119.538L52.4461 107.4V116.767C52.4461 116.965 52.4461 117.295 52.4461 117.559V118.68C52.4461 118.68 52.4461 119.802 52.512 119.933C52.644 120.395 52.9738 120.461 53.6334 120.461V120.989H45.7837V120.461H46.7072L46.9711 119.999V102.783C46.9711 102.651 47.037 101.53 46.9051 101.464C46.5093 100.804 46.2455 101.068 45.7178 100.936V100.408H56.7997V100.54Z" fill="#89C540"/>
<path d="M97.6315 104.366C100.072 107.07 100.468 110.83 99.6764 113.469C98.621 117.361 96.1144 119.471 92.1566 120.725C88.7264 121.78 82.0641 121.78 78.568 118.944C75.5337 116.437 74.8081 112.479 75.072 109.841C75.4018 106.543 76.853 103.706 80.6789 101.727C82.1961 100.936 83.6472 100.606 84.9006 100.408C88.1987 100.012 94.2014 100.408 97.6315 104.366ZM82.3939 114.26C84.109 116.371 87.0114 116.503 88.8584 116.239C91.1671 115.843 92.7502 114.854 93.6078 112.611C94.2014 111.028 94.0695 108.983 92.8822 107.532C91.1011 105.421 87.8689 105.025 86.2858 105.289C84.109 105.619 82.3939 106.74 81.5364 109.049C80.8768 110.764 81.0747 112.743 82.3939 114.26Z" fill="#89C540"/>
<path d="M110.957 100.408V101.068H109.967C109.637 101.53 109.901 101.991 110.099 102.321L114.057 113.337L118.675 102.255C118.806 102.057 118.872 101.727 118.872 101.332L117.949 101.002V100.474H125.667V101.002C125.403 101.002 125.007 101.068 124.743 101.464L124.413 102.453L117.751 119.076C117.487 119.802 117.487 119.538 117.487 120.263L118.477 120.725V121.253H108.582V120.725C109.11 120.593 109.308 120.659 109.572 119.867C109.637 119.802 109.242 118.812 109.11 118.614L103.701 102.915C103.635 102.849 103.503 102.519 103.437 102.321L103.371 102.057L103.239 101.793C102.909 101.332 102.711 101.332 102.184 101.2L102.25 100.672H110.957V100.408Z" fill="#89C540"/>
<path d="M147.83 100.474V101.067L147.302 101.331C147.038 102.057 147.302 101.991 147.566 102.782L155.284 119.273C155.35 119.537 155.482 119.933 155.746 120.329C156.075 120.791 156.207 120.791 156.735 120.791V121.252H148.951L149.083 120.791L149.545 120.593C148.819 118.482 149.083 119.273 148.094 117.163H137.342L136.089 119.669C136.023 119.933 135.891 120.065 135.891 120.329L136.22 120.593L136.616 120.659L136.55 121.12H129.558L129.624 120.593C129.69 120.593 130.152 120.593 130.482 120.131L131.009 119.141L138.727 101.331L138.067 100.935V100.342H147.83V100.474ZM146.511 113.732L142.685 105.553L138.925 113.732H146.511Z" fill="#89C540"/>
<path d="M161.088 99.3525C161.22 99.6824 161.088 100.144 161.616 100.408H162.803H180.482C180.679 100.408 181.669 100.54 181.867 100.408C182.065 100.276 182.263 100.144 182.395 99.7483L182.461 99.5504V99.3525H182.658L182.856 99.4185V106.411L182.329 106.345C182.329 106.015 182.461 105.553 181.669 105.355C181.669 105.355 180.482 105.355 180.416 105.355H177.843H175.007V120.197L175.336 120.593H176.062V121.187H167.619L167.685 120.659C168.08 120.659 168.41 120.659 168.608 120.065C168.674 119.867 168.674 119.142 168.674 118.878V105.355H161.484L160.956 106.411L160.495 106.345V99.3525H161.088Z" fill="#89C540"/>
<path d="M196.247 100.474V101.067C195.719 101.133 195.257 100.935 194.861 101.595C194.664 101.859 194.73 102.716 194.73 103.112V118.68C194.73 120.263 194.4 120.329 196.247 120.724L196.181 121.186H186.946V120.659C187.408 120.593 187.869 120.79 188.331 120.131C188.529 119.933 188.463 118.943 188.463 118.68V103.046C188.463 101.463 188.859 101.463 186.88 101.067V100.474H196.247Z" fill="#89C540"/>
<path d="M208.912 100.408V101.068H207.923C207.593 101.53 207.857 101.991 208.055 102.321L212.013 113.337L216.63 102.255C216.762 102.057 216.828 101.727 216.828 101.332L215.904 101.002V100.474H223.622V101.002C223.358 101.002 222.963 101.068 222.699 101.464L222.369 102.453L215.707 119.076C215.443 119.802 215.443 119.538 215.443 120.263L216.432 120.725V121.253H206.538V120.725C207.065 120.593 207.263 120.659 207.527 119.867C207.593 119.802 207.197 118.812 207.065 118.614L201.656 102.915C201.59 102.849 201.458 102.519 201.392 102.321L201.326 102.057L201.195 101.793C200.865 101.332 200.667 101.332 200.139 101.2L200.205 100.672H208.912V100.408Z" fill="#89C540"/>
<path d="M250.139 99.4844V105.619H249.611C249.611 105.091 249.546 104.959 248.82 104.564C248.688 104.498 247.83 104.498 247.633 104.498H235.099V108.389H240.047C240.509 108.389 240.904 108.389 241.3 108.389C241.63 108.389 242.158 108.389 242.553 108.389C242.817 108.389 243.477 108.455 243.873 108.324C244.664 108.06 244.334 107.928 244.796 107.334L245.324 107.4V113.403H244.796C244.796 113.007 244.862 112.677 244.136 112.413C244.005 112.281 243.147 112.281 242.949 112.281H242.224C241.696 112.281 241.036 112.281 240.443 112.281H235.165V117.031H247.567C247.633 117.031 248.622 117.097 248.82 117.031C249.084 116.965 249.282 116.767 249.48 116.503C249.677 116.305 249.48 116.107 249.677 115.843H250.205V122.308H249.677C249.546 121.846 249.677 121.45 248.886 121.252C248.754 121.186 247.896 121.252 247.699 121.252H227.58V120.725C227.975 120.527 228.371 120.725 228.767 119.999C228.833 119.867 228.833 118.812 228.833 118.68V103.112C228.833 101.595 229.097 101.595 227.514 101.133V100.54H247.699C247.896 100.54 248.688 100.606 248.886 100.54C249.48 100.342 249.48 100.276 249.743 99.4844H250.139Z" fill="#89C540"/>
<path d="M13.8577 123.562L14.1216 123.628L12.0107 127.387L11.8129 127.256V126.86C10.2297 125.672 7.52522 125.474 5.87613 126.068C4.68879 126.53 3.96319 127.124 3.69933 128.311C3.50144 128.971 3.69933 130.092 4.42493 130.884C5.67824 132.203 8.05293 132.335 9.24028 132.137C9.50413 132.137 10.0318 131.939 10.6915 131.741C10.8894 131.675 11.2192 131.543 11.483 131.411C11.8129 131.147 11.9448 131.147 11.9448 130.752L11.8788 130.554L12.0767 130.356L14.4514 134.05L14.2535 134.182C13.9237 133.852 13.9237 133.984 13.396 134.116L13.0662 134.248C10.0978 135.303 5.54631 135.765 2.77584 133.852C0.862895 132.533 0.0713319 130.818 0.00536827 129.103C-0.0605954 127.519 0.467113 125.672 2.38006 124.221C5.41439 121.912 9.30624 122.44 12.4065 123.364L13.6598 123.628L13.8577 123.562Z" fill="#0071BC"/>
<path d="M27.9082 124.88V125.21L27.6443 125.342C27.5124 125.738 27.6443 125.672 27.7762 126.068L31.6681 134.313C31.734 134.445 31.7341 134.643 31.9319 134.841C32.1298 135.039 32.1958 135.105 32.4597 135.105V135.303H28.5018L28.5678 135.039L28.8316 134.973C28.5018 133.917 28.6338 134.313 28.1061 133.258H22.697L22.0374 134.511C21.9714 134.643 21.9714 134.709 21.9714 134.841L22.1693 134.973L22.3672 135.039L22.3012 135.303H18.8052V135.039C18.8711 135.039 19.069 135.039 19.201 134.841L19.4648 134.379L23.3567 125.474L23.0269 125.276V125.012H27.9082V124.88ZM27.3145 131.543L25.4015 127.453L23.4886 131.543H27.3145Z" fill="#0071BC"/>
<path d="M43.212 124.946C44.3334 124.946 46.5761 124.814 47.6975 126.464C48.2252 127.255 48.3572 128.376 48.0273 129.234C47.5656 130.421 46.84 130.817 45.5867 131.411L46.5102 132.862C46.5761 132.994 46.7081 133.192 46.84 133.324L47.1698 133.785L47.4337 134.181C47.4996 134.247 47.7635 134.643 47.8295 134.709C48.0273 134.907 48.2912 134.973 48.4231 134.973V135.237H43.6737V134.973L44.2015 134.643C44.2015 134.511 44.2014 134.511 44.1355 134.313L42.4864 131.411H40.2436V132.73C40.2436 132.862 40.2436 133.126 40.2436 133.39V134.049V134.709C40.3756 135.039 40.5075 135.039 40.8373 135.039V135.303H36.8135V135.039C37.0774 135.039 37.2093 135.039 37.3412 134.775C37.3412 134.775 37.3412 134.247 37.3412 134.181V126.2C37.3412 126.134 37.3412 125.672 37.2753 125.606C37.2093 125.342 37.0774 125.276 36.7476 125.276V125.012H43.212V124.946ZM42.1566 129.498C42.4204 129.498 44.5313 129.696 45.1249 128.772C45.3888 128.442 45.3228 127.981 45.1249 127.717C44.5972 126.661 42.6843 126.925 42.0246 126.925H40.3096V129.498H42.1566Z" fill="#0071BC"/>
<path d="M64.2535 124.353V127.453H63.9896C63.9896 127.189 63.9896 127.123 63.5938 126.925C63.5279 126.925 63.0661 126.925 63.0002 126.925H56.7336V128.838H59.2402C59.4381 128.838 59.702 128.838 59.8339 128.838C60.0318 128.838 60.2956 128.838 60.4935 128.838C60.6255 128.838 60.9553 128.838 61.1532 128.772C61.549 128.64 61.417 128.574 61.6149 128.244L61.8788 128.31V131.345H61.6149C61.6149 131.147 61.6809 131.015 61.2851 130.817C61.2191 130.751 60.7574 130.751 60.6914 130.751H60.3616C60.0978 130.751 59.7679 130.751 59.4381 130.751H56.7996V133.126H63.0002C63.0661 133.126 63.5279 133.126 63.6598 133.126C63.7917 133.06 63.8577 132.994 63.9896 132.862C64.0556 132.796 63.9896 132.664 64.1215 132.532H64.3854V135.764H64.1215C64.0556 135.5 64.1215 135.368 63.7258 135.237C63.6598 135.171 63.198 135.237 63.1321 135.237H52.9077V134.973C53.1056 134.907 53.3035 134.973 53.5014 134.643C53.5674 134.577 53.5674 134.049 53.5674 133.983V126.2C53.5674 125.408 53.6993 125.408 52.9077 125.21V124.946H63.0002C63.0661 124.946 63.5279 124.946 63.5938 124.946C63.9236 124.88 63.9236 124.814 63.9896 124.418L64.2535 124.353Z" fill="#0071BC"/>
<path d="M90.8372 123.562L91.1011 123.628L88.9902 127.387L88.7923 127.256V126.86C87.2092 125.672 84.5047 125.474 82.8556 126.068C81.6683 126.53 80.9427 127.124 80.6788 128.311C80.4809 128.971 80.6788 130.092 81.4044 130.884C82.6577 132.203 85.0324 132.335 86.2198 132.137C86.4836 132.137 87.0113 131.939 87.671 131.741C87.8689 131.675 88.1987 131.543 88.4625 131.411C88.7923 131.147 88.9243 131.147 88.9243 130.752L88.8583 130.554L89.0562 130.356L91.4309 134.05L91.233 134.182C90.9032 133.852 90.9032 133.984 90.3755 134.116L90.0457 134.248C87.0773 135.303 82.5258 135.765 79.7553 133.852C77.8424 132.533 77.0508 130.818 76.9849 129.103C76.9189 127.519 77.4466 125.672 79.3596 124.221C82.3939 121.912 86.2857 122.44 89.386 123.364L90.6393 123.628L90.8372 123.562Z" fill="#0071BC"/>
<path d="M107.131 126.859C108.318 128.179 108.582 130.092 108.186 131.411C107.658 133.324 106.405 134.445 104.426 135.039C102.711 135.567 99.3469 135.567 97.6318 134.115C96.1147 132.862 95.7189 130.883 95.8508 129.564C95.9828 127.915 96.7743 126.464 98.6873 125.474C99.4129 125.078 100.138 124.88 100.798 124.815C102.381 124.617 105.416 124.88 107.131 126.859ZM99.4788 131.807C100.336 132.862 101.788 132.928 102.711 132.796C103.832 132.598 104.69 132.136 105.086 130.949C105.416 130.158 105.35 129.102 104.756 128.377C103.898 127.321 102.249 127.123 101.458 127.255C100.402 127.453 99.5448 127.981 99.083 129.102C98.6873 130.026 98.8192 131.015 99.4788 131.807Z" fill="#0071BC"/>
<path d="M118.278 124.947V125.211L117.816 125.474C117.816 125.672 117.882 125.738 118.212 126.068L122.038 130.158V127.256C122.038 127.058 122.038 126.86 122.038 126.662C122.038 126.464 122.038 126.266 122.038 126.002C122.038 125.936 122.038 125.474 122.038 125.409C121.84 125.145 121.708 125.211 121.444 125.145V124.947H125.6V125.211C125.336 125.277 125.204 125.145 125.006 125.474C124.94 125.606 124.94 126.002 124.94 126.2V134.841L125.6 135.105V135.369H121.247L121.312 135.039L121.906 134.709V134.512L116.233 128.443V133.126C116.233 133.192 116.233 133.39 116.233 133.522V134.116C116.233 134.116 116.233 134.643 116.299 134.775C116.365 134.973 116.563 135.039 116.893 135.039V135.303H112.869V135.039H113.331L113.463 134.841V126.2C113.463 126.134 113.463 125.606 113.463 125.54C113.265 125.211 113.133 125.343 112.869 125.277V125.013H118.278V124.947Z" fill="#0071BC"/>
<path d="M135.495 124.947V125.211L135.033 125.474C135.033 125.672 135.099 125.738 135.429 126.068L139.255 130.158V127.256C139.255 127.058 139.255 126.86 139.255 126.662C139.255 126.464 139.255 126.266 139.255 126.002C139.255 125.936 139.255 125.474 139.255 125.409C139.057 125.145 138.925 125.211 138.661 125.145V124.947H142.817V125.211C142.553 125.277 142.421 125.145 142.223 125.474C142.157 125.606 142.157 126.002 142.157 126.2V134.841L142.817 135.105V135.369H138.463L138.529 135.039L139.123 134.709V134.512L133.45 128.443V133.126C133.45 133.192 133.45 133.39 133.45 133.522V134.116C133.45 134.116 133.45 134.643 133.516 134.775C133.582 134.973 133.78 135.039 134.11 135.039V135.303H130.086V135.039H130.548L130.68 134.841V126.2C130.68 126.134 130.68 125.606 130.68 125.54C130.482 125.211 130.35 125.343 130.086 125.277V125.013H135.495V124.947Z" fill="#0071BC"/>
<path d="M158.516 124.353V127.453H158.252C158.252 127.189 158.252 127.123 157.856 126.925C157.79 126.925 157.328 126.925 157.262 126.925H150.996V128.838H153.502C153.7 128.838 153.964 128.838 154.096 128.838C154.294 128.838 154.558 128.838 154.756 128.838C154.888 128.838 155.217 128.838 155.415 128.772C155.811 128.64 155.679 128.574 155.877 128.244L156.141 128.31V131.345H155.811C155.811 131.147 155.877 131.015 155.481 130.817C155.415 130.751 154.954 130.751 154.888 130.751H154.558C154.294 130.751 153.964 130.751 153.634 130.751H150.996V133.126H157.196C157.262 133.126 157.724 133.126 157.856 133.126C157.988 133.06 158.054 132.994 158.186 132.862C158.252 132.796 158.186 132.664 158.318 132.532H158.582V135.764H158.318C158.252 135.5 158.318 135.368 157.922 135.237C157.856 135.171 157.394 135.237 157.328 135.237H147.236V134.973C147.434 134.907 147.632 134.973 147.83 134.643C147.895 134.577 147.895 134.049 147.895 133.983V126.2C147.895 125.408 148.027 125.408 147.236 125.21V124.946H157.328C157.394 124.946 157.856 124.946 157.922 124.946C158.252 124.88 158.252 124.814 158.318 124.418L158.516 124.353Z" fill="#0071BC"/>
<path d="M173.622 131.544L173.886 131.28L175.667 133.918L175.469 134.116C175.007 133.918 174.941 133.984 174.479 134.116C174.282 134.182 173.292 134.644 172.567 134.842C171.643 135.106 170.917 135.172 170.39 135.238C168.675 135.304 166.63 135.172 165.574 134.644C163.925 133.786 163.134 132.203 162.936 130.686C162.804 129.301 163.134 127.454 164.783 126.069C167.026 124.222 171.577 124.881 173.754 125.343C174.216 125.541 174.216 125.541 174.611 125.211L174.875 125.277L173.688 128.311L173.424 128.179L173.49 127.916C172.105 126.926 169.202 126.596 167.751 127.19C166.828 127.586 166.168 128.377 165.97 129.367C165.838 130.158 165.97 131.412 167.092 132.335C168.279 133.391 170.917 132.995 172.501 132.599C172.501 132.599 173.292 132.335 173.688 131.676L173.622 131.544Z" fill="#0071BC"/>
<path d="M180.218 124.353C180.284 124.55 180.218 124.748 180.482 124.88H181.076H189.915C190.047 124.88 190.509 124.946 190.641 124.88C190.707 124.814 190.839 124.748 190.905 124.55V124.484V124.418H190.97L191.036 124.484V127.981H190.773C190.773 127.783 190.839 127.585 190.443 127.453C190.443 127.453 189.849 127.453 189.783 127.453H188.464H187.013V134.907L187.211 135.105H187.54V135.434H183.517L183.583 135.171C183.78 135.171 183.912 135.171 184.044 134.907C184.11 134.841 184.11 134.445 184.11 134.313V127.519H180.482L180.218 128.046H180.021V124.55H180.218V124.353Z" fill="#0071BC"/>
<path d="M200.337 124.88V125.144C200.073 125.21 199.875 125.078 199.612 125.408C199.546 125.54 199.546 126.002 199.546 126.2V133.983C199.546 134.775 199.348 134.841 200.337 135.039V135.303H195.72V135.039C195.984 134.973 196.182 135.105 196.379 134.775C196.445 134.643 196.445 134.181 196.445 134.049V126.2C196.445 125.408 196.643 125.408 195.654 125.21V124.946H200.337V124.88Z" fill="#0071BC"/>
<path d="M216.102 126.859C217.29 128.179 217.554 130.092 217.158 131.411C216.63 133.324 215.377 134.445 213.398 135.039C211.683 135.567 208.319 135.567 206.604 134.115C205.086 132.862 204.691 130.883 204.823 129.564C204.954 127.915 205.746 126.464 207.659 125.474C208.385 125.078 209.11 124.88 209.77 124.815C211.353 124.617 214.387 124.88 216.102 126.859ZM208.451 131.807C209.308 132.862 210.759 132.928 211.683 132.796C212.804 132.598 213.662 132.136 214.057 130.949C214.387 130.158 214.321 129.102 213.728 128.377C212.87 127.321 211.221 127.123 210.429 127.255C209.374 127.453 208.516 127.981 208.055 129.102C207.659 130.026 207.791 131.015 208.451 131.807Z" fill="#0071BC"/>
<path d="M227.25 124.947V125.211L226.789 125.474C226.789 125.672 226.855 125.738 227.184 126.068L231.01 130.158V127.256C231.01 127.058 231.01 126.86 231.01 126.662C231.01 126.464 231.01 126.266 231.01 126.002C231.01 125.936 231.01 125.474 231.01 125.409C230.812 125.145 230.68 125.211 230.417 125.145V124.947H234.572V125.211C234.308 125.277 234.177 125.145 233.979 125.474C233.913 125.606 233.913 126.002 233.913 126.2V134.841L234.572 135.105V135.369H230.219L230.285 135.039L230.878 134.709V134.512L225.206 128.443V133.126C225.206 133.192 225.206 133.39 225.206 133.522V134.116C225.206 134.116 225.205 134.643 225.271 134.775C225.337 134.973 225.535 135.039 225.865 135.039V135.303H221.775V135.039H222.237L222.369 134.841V126.2C222.369 126.134 222.369 125.606 222.369 125.54C222.171 125.211 222.039 125.343 221.775 125.277V125.013H227.25V124.947Z" fill="#0071BC"/>
<path d="M249.875 125.276L248.424 128.179L248.16 128.047V127.717C247.039 127.057 243.873 126.332 242.685 127.255C242.421 127.453 242.224 127.717 242.355 128.047C242.553 128.574 244.532 128.838 244.598 128.838L245.786 129.036C246.709 129.168 249.018 129.498 249.677 130.883C250.007 131.543 250.007 132.532 249.545 133.39C248.688 134.841 246.973 135.303 245.786 135.369C243.477 135.566 242.224 135.237 239.519 134.511L239.123 134.841L238.859 134.709L239.849 131.675L240.113 131.807V132.07C241.498 133.126 244.598 133.522 245.983 133.126C246.313 132.994 246.709 132.862 246.841 132.466C246.907 132.268 246.907 132.004 246.775 131.873C246.445 131.477 245.192 131.345 244.73 131.345H243.939C243.213 131.279 239.981 130.817 239.321 129.102C238.991 128.31 239.123 127.321 239.849 126.463C241.828 124.089 246.511 124.88 248.028 125.21L248.556 125.342C248.556 125.342 248.688 125.342 248.754 125.342C248.886 125.342 248.952 125.408 249.018 125.408C249.216 125.408 249.348 125.21 249.48 125.144L249.875 125.276Z" fill="#0071BC"/>
<path d="M81.0747 46.4496C81.0747 47.439 81.0087 48.4945 80.9428 49.6818C80.8768 50.8032 80.7449 51.7926 80.6789 52.4523C80.6789 52.7161 80.6129 52.98 80.547 53.2439C81.4705 53.3758 82.394 53.7056 83.4494 54.1014C85.3623 54.1014 87.6051 54.1014 89.8478 54.1014C86.4837 46.1857 86.022 36.621 93.3439 30.5524C102.315 23.0325 119.004 26.8584 121.51 38.534C125.996 32.5972 129.426 26.4626 138.859 26.3307C149.215 26.1988 157.527 34.5102 156.735 44.6686C156.471 47.8348 155.746 50.6713 154.558 53.3098C157.131 53.3098 159.439 53.3098 161.22 53.3098C161.286 53.3098 161.418 53.2439 161.484 53.2439C161.418 52.98 161.418 52.7161 161.352 52.4523C161.286 51.7926 161.155 50.8032 161.089 49.6818C161.023 48.4945 160.957 47.439 160.957 46.4496C160.957 44.8665 161.089 43.5472 161.286 42.4918C161.55 41.1725 162.012 40.183 162.54 39.5234C158.318 26.0668 147.698 15.4467 134.175 11.3569C133.582 17.5575 128.437 22.5708 121.972 22.9006C118.542 23.0325 115.244 21.8452 112.737 19.5364C110.428 17.4256 108.977 14.5892 108.647 11.5548C94.8611 15.9744 84.109 27.1882 80.415 41.3044C80.547 41.6342 80.6789 42.03 80.7449 42.4918C80.9427 43.5472 81.0747 44.8665 81.0747 46.4496Z" fill="#89C540"/>
<path d="M154.69 27.4526C149.808 20.9882 142.948 16.0409 135.362 13.3364C133.911 19.471 128.502 24.0885 122.104 24.3524C118.278 24.5502 114.584 23.231 111.747 20.6584C109.637 18.7454 108.185 16.2388 107.526 13.5343C99.9399 16.3048 93.4755 21.1861 88.5942 27.7165C85.362 32.0701 83.0532 37.0174 81.734 42.1625C82.5255 45.4607 82.5255 49.1547 81.6021 52.5188C81.9978 52.6508 82.4596 52.8486 82.7894 53.0465H87.8026C86.8132 50.2761 85.9557 46.9779 85.9557 43.4158C85.9557 43.086 85.9557 42.8222 85.9557 42.4924C86.1535 37.1493 88.3303 32.5978 92.2882 29.2996C97.3014 25.1439 104.887 23.8906 111.616 26.1993C116.497 27.8484 120.125 31.0806 121.906 35.1704C125.732 29.9593 129.821 24.7481 138.793 24.6822C144.333 24.6162 149.677 26.859 153.371 30.8168C156.537 34.2469 158.252 38.5345 158.252 43.086C158.252 43.6137 158.252 44.0755 158.186 44.6032C157.988 47.2417 157.394 49.6824 156.537 52.123C156.867 52.123 157.196 52.123 157.592 52.123C157.988 52.123 158.384 52.1231 158.78 52.0571C158.911 52.0571 159.439 51.9911 159.637 51.9911C159.769 50.5399 159.967 49.0228 160.165 47.5716C160.231 47.2417 160.231 46.9119 160.297 46.5821C160.363 45.9884 160.363 45.3948 160.363 44.867C160.495 43.152 160.692 41.5689 161.154 40.0517C159.769 35.5662 157.592 31.3445 154.69 27.4526Z" fill="url(#paint0_linear_218_4811)"/>
<path d="M111.418 10.4998C111.154 4.95883 115.442 0.275408 120.917 0.0115535C126.458 -0.252301 131.141 4.03534 131.405 9.57628C131.669 15.1172 127.381 19.8006 121.841 20.0645C116.366 20.3284 111.682 16.0407 111.418 10.4998Z" fill="#89C540"/>
<path d="M120.983 1.52872C118.74 1.66065 116.629 2.6501 115.112 4.2992C113.661 5.88232 112.869 7.86123 112.869 10.038C112.869 10.17 112.869 10.3019 112.869 10.4338C113.001 12.6766 113.991 14.7874 115.64 16.3046C117.289 17.8217 119.466 18.6133 121.774 18.4814C126.458 18.2835 130.086 14.2597 129.888 9.57629C129.69 4.95883 125.666 1.33083 120.983 1.52872Z" fill="url(#paint1_radial_218_4811)"/>
<path d="M141.827 57.8618H152.777C153.701 57.1362 154.558 56.4766 155.35 55.8829H134.505L129.426 55.4211L126.26 45.8564L121.313 67.2286L114.65 38.8643L108.714 56.6744L107.394 56.7404H87.8032C88.5948 57.3341 89.3864 57.9937 90.1779 58.7193H111.088H111.55L114.848 46.0543L120.983 79.0361C121.049 79.0361 121.115 79.0361 121.181 79.0361L126.194 55.619L127.975 58.2576L152.514 58.1256C152.58 58.0597 152.645 57.9937 152.711 57.9277L141.827 57.8618Z" fill="#89C540"/>
<path fill-rule="evenodd" clip-rule="evenodd" d="M146.709 38.4025H142.355V33.9829H138.265V38.4025H133.846V42.4263H138.265V46.8458H142.355V42.4263H146.709V38.4025Z" fill="#0071BC"/>
<path d="M171.643 55.9485L167.817 41.3046C167.355 40.3151 165.97 40.4471 165.97 40.4471C162.012 40.1172 164.057 53.178 164.057 53.178C164.321 53.9696 164.387 54.9591 164.255 55.9485C157.988 53.6398 146.379 68.0858 146.379 68.0858C136.946 68.8114 132.856 71.0542 132.856 71.0542C114.057 80.9487 122.632 96.3842 122.632 96.3842C134.044 97.0439 142.487 93.4818 142.487 93.4818C141.695 90.0517 142.487 87.9409 142.487 87.9409C143.081 86.4237 149.545 82.5978 149.545 82.5978L154.69 79.5635L163.991 74.0885C165.046 73.6268 165.112 72.9012 165.112 72.9012L171.643 57.3997C171.973 57.2678 171.643 55.9485 171.643 55.9485ZM150.732 76.9249L152.843 73.231C153.371 70.9882 159.703 64.9855 159.703 64.9855C160.297 64.3919 160.825 63.7982 161.287 63.2705C157.329 70.0647 150.732 76.9249 150.732 76.9249Z" fill="#0071BC"/>
<path d="M165.64 41.7661C164.453 43.0854 164.717 49.22 165.31 52.914L165.244 52.7161C165.574 53.7056 165.64 54.8269 165.508 56.0802L165.31 57.5974L163.859 57.0697C159.901 55.6185 151.656 63.4682 147.368 68.8112L147.038 69.207L146.511 69.273C137.54 69.9326 133.516 72.1094 133.45 72.1094C127.579 75.2097 123.951 79.1016 122.566 83.719C122.104 85.2362 121.906 86.6874 121.906 88.0726C121.906 91.3048 122.896 93.9434 123.423 95.1307C131.933 95.4605 138.661 93.4816 141.102 92.6901C140.97 91.8985 140.904 91.1729 140.904 90.5133C140.904 88.7322 141.3 87.6768 141.366 87.5449C142.025 85.8958 146.379 83.1253 148.885 81.6082L154.097 78.5738L163.463 73.0989H163.529C163.859 72.9669 163.925 72.769 163.925 72.769V72.835V72.7031L163.991 72.5052L170.587 56.9378C170.587 56.7399 170.521 56.476 170.521 56.2781C170.521 56.2122 166.893 42.2938 166.762 41.8321C166.63 41.7661 166.366 41.6342 166.102 41.7002H166.036H165.97C165.772 41.6342 165.772 41.7002 165.64 41.7661ZM160.429 62.4128L162.408 63.864C158.384 70.7242 151.92 77.4525 151.59 77.7823L149.611 76.3311C149.611 76.3311 151.59 72.835 151.722 72.7031C152.579 70.1305 157.725 65.1832 158.846 64.1278C158.912 64.0618 160.429 62.4128 160.429 62.4128Z" fill="url(#paint2_radial_218_4811)"/>
<path d="M70.0349 55.9485L73.8608 41.3046C74.3226 40.3151 75.7078 40.4471 75.7078 40.4471C79.6656 40.1172 77.6207 53.178 77.6207 53.178C77.3569 53.9696 77.2909 54.9591 77.4229 55.9485C83.6894 53.6398 95.299 68.0858 95.299 68.0858C104.732 68.8114 108.822 71.0542 108.822 71.0542C127.621 80.9487 119.046 96.3842 119.046 96.3842C107.634 97.0439 99.1908 93.4818 99.1908 93.4818C99.9824 90.0517 99.1908 87.9409 99.1908 87.9409C98.5972 86.4237 92.1327 82.5978 92.1327 82.5978L86.9876 79.5635L77.6867 74.0885C76.6313 73.6268 76.5653 72.9012 76.5653 72.9012L70.0349 57.3997C69.7051 57.2678 70.0349 55.9485 70.0349 55.9485ZM90.9454 76.9249L88.8346 73.231C88.3069 70.9882 81.9743 64.9855 81.9743 64.9855C81.3807 64.3919 80.853 63.7982 80.3912 63.2705C84.349 70.0647 90.9454 76.9249 90.9454 76.9249Z" fill="#0071BC"/>
<path d="M76.0366 41.7661C77.224 43.0854 76.9601 49.22 76.3664 52.914L76.4324 52.7161C76.1026 53.7056 76.0366 54.8269 76.1685 56.0802L76.3664 57.5974L77.8176 57.0697C81.7754 55.6185 90.0209 63.4682 94.3085 68.8112L94.6384 69.207L95.1661 69.273C104.137 69.9326 108.161 72.1094 108.227 72.1094C114.098 75.2097 117.726 79.1016 119.111 83.719C119.573 85.2362 119.771 86.6874 119.771 88.0726C119.771 91.3048 118.781 93.9434 118.253 95.1307C109.744 95.4605 103.016 93.4816 100.575 92.6901C100.707 91.8985 100.773 91.1729 100.773 90.5133C100.773 88.7322 100.377 87.6768 100.311 87.5449C99.6516 85.8958 95.298 83.1253 92.7914 81.6082L87.5803 78.5738L78.2134 73.0989H78.1474C77.8176 72.9669 77.7517 72.769 77.7517 72.769V72.835V72.7031L77.6857 72.5052L71.0893 56.9378C71.0893 56.7399 71.1553 56.476 71.1553 56.2781C71.1553 56.2122 74.7833 42.2938 74.9152 41.8321C75.0472 41.7661 75.311 41.6342 75.5749 41.7002H75.6408H75.7068C75.9047 41.6342 75.9047 41.7002 76.0366 41.7661ZM81.2477 62.4128L79.2688 63.864C83.2926 70.7242 89.757 77.4525 90.0869 77.7823L92.0658 76.3311C92.0658 76.3311 90.0869 72.835 89.9549 72.7031C89.0974 70.1305 83.9522 65.1832 82.8309 64.1278C82.7649 64.0618 81.2477 62.4128 81.2477 62.4128Z" fill="url(#paint3_radial_218_4811)"/>
<defs>
<linearGradient id="paint0_linear_218_4811" x1="121.378" y1="13.3364" x2="121.378" y2="53.0465" gradientUnits="userSpaceOnUse">
<stop stop-color="white" stop-opacity="0.5"/>
<stop offset="1" stop-color="white" stop-opacity="0.2"/>
</linearGradient>
<radialGradient id="paint1_radial_218_4811" cx="0" cy="0" r="1" gradientUnits="userSpaceOnUse" gradientTransform="translate(118.212 -4.67179) rotate(84.7261) scale(21.5293 21.595)">
<stop offset="0.127381" stop-color="white"/>
<stop offset="0.561427" stop-color="white" stop-opacity="0"/>
</radialGradient>
<radialGradient id="paint2_radial_218_4811" cx="0" cy="0" r="1" gradientUnits="userSpaceOnUse" gradientTransform="translate(135.033 48.7581) rotate(67.4706) scale(48.2043 43.8668)">
<stop offset="0.146851" stop-color="white"/>
<stop offset="0.697917" stop-color="white" stop-opacity="0"/>
</radialGradient>
<radialGradient id="paint3_radial_218_4811" cx="0" cy="0" r="1" gradientUnits="userSpaceOnUse" gradientTransform="translate(106.644 48.7581) rotate(112.529) scale(48.2043 43.8668)">
<stop offset="0.146851" stop-color="white"/>
<stop offset="0.697917" stop-color="white" stop-opacity="0"/>
</radialGradient>
</defs>
</svg>
