<svg width="18" height="16" viewBox="0 0 18 16" fill="none" xmlns="http://www.w3.org/2000/svg">
<path fill-rule="evenodd" clip-rule="evenodd" d="M18 15.5255V1.24358C18 0.943305 17.799 0.690398 17.5089 0.625709C16.3132 0.358963 9.94823 0.150336 8.71015 0V1.5898C9.58737 1.70028 15.5918 1.83978 16.4348 2.00831V14.4183H10.9565V9.83148H7.04348V14.4183H1.56522V2.00823C2.40817 1.83986 7.833 1.70028 8.71015 1.5898V0C7.47198 0.150336 1.68683 0.359043 0.491087 0.625867C0.200974 0.690478 0 0.943384 0 1.24358V15.5255C0 15.7869 0.210913 16 0.469565 16H17.5304C17.7891 16 18 15.7869 18 15.5255Z" fill="#0071BC"/>
<path d="M12.6297 7.98663V5.82324H14.7602V7.98663H12.6297ZM7.54271 7.98663V5.82324H10.4558V7.98663H7.54271ZM3.23836 7.98663V5.82324H5.36879V7.98663H3.23836ZM3.23828 12.3368V10.1734H5.36872V12.3368H3.23828ZM12.6297 10.1734H14.7602V12.3368H12.6297V10.1734Z" stroke="#0071BC"/>
</svg>
