<svg width="18" height="18" viewBox="0 0 18 18" fill="none" xmlns="http://www.w3.org/2000/svg">
<path fill-rule="evenodd" clip-rule="evenodd" d="M4.5 4.959C4.5 5.19187 4.689 5.38088 4.92188 5.38088H6.04688C6.15881 5.38088 6.26625 5.33644 6.345 5.25712C6.42431 5.17781 6.46875 5.07094 6.46875 4.959V3.09375C6.46875 3.05662 6.48337 3.02062 6.50981 2.99419C6.53625 2.96775 6.57225 2.95312 6.60938 2.95312H11.3906C11.4278 2.95312 11.4637 2.96775 11.4902 2.99419C11.5166 3.02062 11.5312 3.05662 11.5312 3.09375V4.959C11.5312 5.19187 11.7203 5.38088 11.9531 5.38088H13.0781C13.311 5.38088 13.5 5.19187 13.5 4.959V3.09375C13.5 2.53406 13.2778 1.998 12.8824 1.602C12.4864 1.20656 11.9503 0.984375 11.3906 0.984375C10.0783 0.984375 7.92169 0.984375 6.60938 0.984375C6.04969 0.984375 5.51362 1.20656 5.11762 1.602C4.72219 1.998 4.5 2.53406 4.5 3.09375V4.959Z" fill="#0071BC"/>
<path fill-rule="evenodd" clip-rule="evenodd" d="M17 6.50905C17 6.10847 16.8434 5.72489 16.5648 5.44174C16.2862 5.15859 15.9088 5 15.5152 5C12.7211 5 5.27887 5 2.48478 5C2.09118 5 1.71377 5.15859 1.43518 5.44174C1.15658 5.72489 1 6.10847 1 6.50905C1 8.64807 1 13.3519 1 15.4909C1 15.8915 1.15658 16.2751 1.43518 16.5583C1.71377 16.8414 2.09118 17 2.48478 17C5.27887 17 12.7211 17 15.5152 17C15.9088 17 16.2862 16.8414 16.5648 16.5583C16.8434 16.2751 17 15.8915 17 15.4909C17 13.3519 17 8.64807 17 6.50905Z" fill="#0071BC"/>
<rect x="2" y="6" width="14" height="10" fill="white"/>
<path fill-rule="evenodd" clip-rule="evenodd" d="M10.265 9.66592V8.76367C10.265 8.29736 9.88753 7.91992 9.42122 7.91992H8.57859C8.11228 7.91992 7.73484 8.29736 7.73484 8.76367V9.66592H6.83203C6.36628 9.66592 5.98828 10.0439 5.98828 10.5097V11.3529C5.98828 11.8186 6.36628 12.1966 6.83203 12.1966H7.73484V13.0989C7.73484 13.5646 8.11228 13.9426 8.57859 13.9426H9.42122C9.88753 13.9426 10.265 13.5646 10.265 13.0989V12.1966H11.1678C11.6335 12.1966 12.0115 11.8186 12.0115 11.3529V10.5097C12.0115 10.0439 11.6335 9.66592 11.1678 9.66592H10.265Z" fill="#0071BC"/>
</svg>
