<svg width="16" height="16" viewBox="0 0 16 16" fill="none" xmlns="http://www.w3.org/2000/svg">
<path d="M1.34111 15.25C1.34083 15.25 1.34052 15.25 1.34018 15.25C1.33781 15.2498 1.3342 15.2496 1.32948 15.2493C1.31296 15.2481 1.28446 15.2454 1.2483 15.2394C1.17242 15.2267 1.08271 15.2028 1.00208 15.1625C0.924383 15.1237 0.869503 15.0772 0.832371 15.0215C0.798369 14.9705 0.75 14.8688 0.75 14.6667C0.75 14.1926 1.00874 13.0519 2.03033 12.0303C3.02994 11.0307 4.82484 10.0833 8 10.0833C11.1752 10.0833 12.9701 11.0307 13.9697 12.0303C14.9913 13.0519 15.25 14.1926 15.25 14.6667C15.25 14.8688 15.2016 14.9705 15.1676 15.0215C15.1305 15.0772 15.0756 15.1237 14.9979 15.1625C14.9173 15.2028 14.8276 15.2267 14.7517 15.2394C14.7155 15.2454 14.687 15.2481 14.6705 15.2493C14.6651 15.2497 14.6612 15.2499 14.6589 15.25H1.34111ZM10.2981 6.2981C9.6886 6.90759 8.86195 7.25 8 7.25C7.13805 7.25 6.3114 6.90759 5.7019 6.2981C5.09241 5.6886 4.75 4.86195 4.75 4C4.75 3.13805 5.09241 2.3114 5.7019 1.7019C6.3114 1.09241 7.13805 0.75 8 0.75C8.86195 0.75 9.6886 1.09241 10.2981 1.7019C10.9076 2.3114 11.25 3.13805 11.25 4C11.25 4.86195 10.9076 5.6886 10.2981 6.2981Z" stroke="#0071BC" stroke-width="1.5"/>
</svg>
