<svg width="16" height="13" viewBox="0 0 16 13" fill="none" xmlns="http://www.w3.org/2000/svg">
<path d="M14.0089 3.62536C13.5414 4.41484 13.0656 5.17959 12.5691 5.78379C11.9418 6.54713 11.1708 7.19349 10.2149 7.16042L10.2149 7.16042C10.1984 7.15985 10.1796 7.15944 10.1589 7.15899C10.0213 7.156 9.79717 7.15113 9.57512 7.08409C9.29047 6.99815 9.02369 6.82213 8.78748 6.50981C8.46712 6.08626 8.19399 5.3975 7.96421 4.28475C7.90662 4.57321 7.83225 4.87247 7.73752 5.16259C7.58874 5.6182 7.37915 6.08471 7.07944 6.45257C6.77423 6.82718 6.35088 7.12619 5.79543 7.15981L14.0089 3.62536ZM14.0089 3.62536C13.5409 5.95311 13.3014 7.1629 12.8251 9.61175L12.7832 9.6118L11.5874 9.61291C10.5978 9.61378 9.27829 9.61482 7.95873 9.61552C6.63912 9.61622 5.31961 9.61657 4.32992 9.61604C3.83502 9.61578 3.42292 9.6153 3.1346 9.61454C3.11748 9.6145 3.10081 9.61445 3.0846 9.6144C2.38685 6.32757 2.00593 4.5595 1.73839 3.38187C2.3848 4.71176 3.05318 5.63247 3.70034 6.23271C4.419 6.89926 5.14583 7.19912 5.79541 7.15981L14.0089 3.62536ZM14.6474 2.31126L14.4077 2.32838L14.1899 2.22879C13.9849 2.13508 13.8231 1.97147 13.7333 1.77012C13.6435 1.56891 13.6312 1.34271 13.6983 1.13342C13.7655 0.924016 13.9082 0.744484 14.1013 0.62968C14.2946 0.514789 14.5244 0.473155 14.7474 0.513381C14.9703 0.553594 15.1693 0.672518 15.308 0.846156C15.4465 1.01964 15.5156 1.23607 15.5036 1.4549C15.4915 1.67376 15.3991 1.88187 15.242 2.0399C15.0848 2.19807 14.8735 2.29511 14.6474 2.31126ZM8.14534 2.30254L7.95303 2.33227L7.76483 2.28337C7.54221 2.22552 7.35071 2.08859 7.22627 1.90083C7.10194 1.71324 7.05285 1.48766 7.08747 1.26742C7.1221 1.0471 7.23836 0.845908 7.4156 0.703456C7.59301 0.560873 7.81864 0.487636 8.04889 0.499243C8.27913 0.510848 8.49573 0.606351 8.65717 0.765678C8.81845 0.924853 8.91329 1.13632 8.92504 1.35884C8.93679 1.58134 8.86475 1.80107 8.72144 1.97556C8.57798 2.15021 8.37298 2.26734 8.14534 2.30254ZM1.78332 2.24361L1.50039 2.36047L1.50035 2.36031L1.20302 2.28762C0.989009 2.2353 0.802217 2.10971 0.675245 1.93497C0.548381 1.76037 0.489146 1.54775 0.507035 1.3351C0.524927 1.12242 0.618961 0.921885 0.773819 0.76983C0.92881 0.617644 1.13462 0.524079 1.35471 0.507369C1.57481 0.490656 1.79313 0.552052 1.97041 0.679469C2.14755 0.806786 2.27175 0.991295 2.32239 1.19904C2.373 1.40669 2.34721 1.62548 2.24913 1.8166C2.15098 2.00787 1.98631 2.15977 1.78332 2.24361ZM12.6561 12.5002H3.26014V11.5743H12.6561V12.5002Z" stroke="#0071BC"/>
</svg>
