<svg width="17" height="17" viewBox="0 0 17 17" fill="none" xmlns="http://www.w3.org/2000/svg">
<path d="M14.808 11.776C15.5885 10.6865 16 9.42625 16 8.125C16 4.403 12.6355 1.375 8.5 1.375C4.3645 1.375 1 4.403 1 8.125C1 11.847 4.3645 14.875 8.5 14.875C9.5655 14.875 10.5945 14.6775 11.5608 14.288C13.262 15.2698 15.614 15.6083 15.7153 15.6225C15.727 15.6243 15.7385 15.625 15.75 15.625C15.8438 15.625 15.9313 15.5722 15.9738 15.4865C16.0218 15.3902 16.0028 15.274 15.9268 15.1982C15.3518 14.6232 14.9557 13.4103 14.808 11.776ZM11.7098 13.7955C11.7095 13.7955 11.7095 13.7955 11.7095 13.7955C11.182 13.4697 10.593 13.092 10.456 12.9832C10.3818 12.875 10.2353 12.8425 10.1215 12.9108C10.0465 12.9558 9.99925 13.039 9.99875 13.126C9.998 13.2733 10.0003 13.3185 11.019 13.955C10.2163 14.2327 9.37175 14.375 8.5 14.375C4.64025 14.375 1.5 11.5712 1.5 8.125C1.5 4.67875 4.64025 1.875 8.5 1.875C12.3598 1.875 15.5 4.67875 15.5 8.125C15.5 9.34925 15.1022 10.536 14.3497 11.5562C14.3137 11.605 14.2968 11.6653 14.302 11.7255C14.3895 12.7693 14.6117 14.0982 15.162 15.0157C14.329 14.8462 12.8275 14.4705 11.7098 13.7955Z" stroke="#0071BC"/>
</svg>
