<svg width="19" height="20" viewBox="0 0 19 20" fill="none" xmlns="http://www.w3.org/2000/svg">
<path d="M12.8009 4.16667C12.8009 5.88615 11.36 7.33333 9.5 7.33333C7.63468 7.33333 6.18182 5.88102 6.18182 4.16667C6.18182 2.45232 7.63468 1 9.5 1C11.36 1 12.8009 2.44718 12.8009 4.16667ZM1 16.25C1 15.8691 1.18993 15.4521 1.70456 14.9943C2.22433 14.5318 2.99379 14.107 3.92491 13.7474C5.78729 13.0282 8.03994 12.6667 9.5 12.6667C10.9601 12.6667 13.2127 13.0282 15.0751 13.7474C16.0062 14.107 16.7757 14.5318 17.2954 14.9943C17.8101 15.4521 18 15.8691 18 16.25V19H1V16.25Z" stroke="#16152F" stroke-width="2"/>
</svg>
