<svg width="23" height="23" viewBox="0 0 23 23" fill="none" xmlns="http://www.w3.org/2000/svg">
<path d="M19.0289 9.69714C19.0289 3.8513 15.8844 1.86276 12.9435 1.41953C12.9435 1.38958 12.9495 1.35964 12.9495 1.3237C12.9495 0.586979 12.2966 0 11.5 0C10.7034 0 10.0745 0.586979 10.0745 1.3237C10.0745 1.35964 10.0745 1.38958 10.0805 1.41953C7.13359 1.86875 3.97109 3.86328 3.97109 9.70912C3.97109 16.5253 2.27604 17.256 0 19.1727H23C20.7359 17.25 19.0289 16.5133 19.0289 9.69714Z" fill="#A5A5A5"/>
<path d="M11.5107 23.0013C13.1159 23.0013 14.4336 21.8094 14.6073 20.4258H8.41406C8.58177 21.8094 9.90547 23.0013 11.5107 23.0013Z" fill="#A5A5A5"/>
</svg>
