<svg width="56" height="60" viewBox="0 0 56 60" fill="none" xmlns="http://www.w3.org/2000/svg">
<path d="M50 6H45V4C45 1.8 43.2 0 41 0C38.8 0 37 1.8 37 4V6H19V4C19 1.8 17.2 0 15 0C12.8 0 11 1.8 11 4V6H6C2.7 6 0 8.7 0 12V14C0 15.1 0.9 16 2 16H54C55.1 16 56 15.1 56 14V12C56 8.7 53.3 6 50 6Z" fill="#455A64"/>
<path d="M54 22H2C0.9 22 0 22.9 0 24V54C0 57.3 2.7 60 6 60H50C53.3 60 56 57.3 56 54V24C56 22.9 55.1 22 54 22ZM28 55.9C19.8 55.9 13.1 49.2 13.1 41C13.1 32.8 19.8 26.1 28 26.1C36.2 26.1 42.9 32.8 42.9 41C42.9 49.2 36.2 55.9 28 55.9Z" fill="#A781BC"/>
<path d="M27.6442 41.1414C27.6442 41.1414 25.4231 38.979 24.5566 36.4928V35.8164H31.6139V36.4928C30.4886 39.2378 28.5263 41.1414 28.5263 41.1414H27.6442Z" fill="#455A64"/>
<path d="M34.1568 35.1013V34.0342H35.1689V32H21V34.0342H22.0115V35.1013C22.0115 36.7311 24.9359 41.1821 25.0741 41.5028C24.9384 41.8241 22.0115 46.2745 22.0115 47.8974V48.9633H21V51H35.1689V48.9633H34.1568V47.8974C34.1568 46.2664 31.2299 41.8448 31.0754 41.4997C31.2299 41.154 34.1568 36.7311 34.1568 35.1013ZM33.1447 47.8974V48.9633H23.023V47.8974C23.023 46.7265 26.1243 42.0867 26.1243 41.4997C26.1243 40.9127 23.023 36.2735 23.023 35.1013V34.0342H33.144V35.1013C33.144 36.2735 30.0177 40.9121 30.0177 41.4991C30.0177 42.0861 33.1447 46.7265 33.1447 47.8974Z" fill="#455A64"/>
</svg>
