<svg width="27" height="24" viewBox="0 0 27 24" fill="none" xmlns="http://www.w3.org/2000/svg">
<path d="M23.4697 4.85553H21.5635V2.02735C21.5635 1.1213 20.7926 0.399805 19.8582 0.399805H7.02684C6.09234 0.399805 5.32153 1.1213 5.32153 2.02735V4.85553H3.41536C2.0082 4.85553 0.85 5.94505 0.85 7.30013V17.0041C0.85 18.3592 2.0082 19.4487 3.41536 19.4487H4.34074C4.63113 19.4487 4.87956 19.2235 4.87956 18.9293C4.87956 18.6352 4.63114 18.4099 4.34074 18.4099H3.41536C2.58789 18.4099 1.92766 17.7719 1.92766 17.0041V7.30013C1.92766 6.5323 2.58789 5.89431 3.41536 5.89431H23.4697C24.2971 5.89431 24.9574 6.5323 24.9574 7.30013V17.0041C24.9574 17.7719 24.2971 18.4099 23.4697 18.4099H22.7744C22.4839 18.4099 22.2356 18.6352 22.2356 18.9293C22.2356 19.2235 22.4839 19.4487 22.7744 19.4487H23.4697C24.8768 19.4487 26.035 18.3592 26.035 17.0041V7.30013C26.035 5.94505 24.8768 4.85553 23.4697 4.85553ZM6.39918 2.02735C6.39918 1.70999 6.67354 1.43858 7.02684 1.43858H19.8582C20.2115 1.43858 20.4858 1.70999 20.4858 2.02735V4.83245H6.39918V2.02735Z" fill="#0071BC" stroke="#0071BC" stroke-width="0.3"/>
<path d="M18.107 16.307H8.77516C8.4851 16.307 8.23672 16.5322 8.23672 16.826C8.23672 17.1199 8.4851 17.3451 8.77516 17.3451H18.107C18.397 17.3451 18.6455 17.1199 18.6455 16.826C18.6455 16.5322 18.397 16.307 18.107 16.307Z" fill="#0071BC" stroke="#0071BC" stroke-width="0.3"/>
<path d="M18.107 18.893H8.77516C8.4851 18.893 8.23672 19.1182 8.23672 19.412C8.23672 19.7058 8.4851 19.931 8.77516 19.931H18.107C18.397 19.931 18.6455 19.7058 18.6455 19.412C18.6455 19.1181 18.397 18.893 18.107 18.893Z" fill="#0071BC" stroke="#0071BC" stroke-width="0.3"/>
<path d="M4.09406 8.77891C4.59905 8.77891 5.02172 8.38815 5.02172 7.89014C5.02172 7.39213 4.59905 7.00137 4.09406 7.00137C3.58908 7.00137 3.16641 7.39213 3.16641 7.89014C3.16641 8.38815 3.58908 8.77891 4.09406 8.77891Z" fill="#0071BC" stroke="#0071BC" stroke-width="0.3"/>
<path d="M7.555 8.7794C8.05999 8.7794 8.48266 8.38864 8.48266 7.89063C8.48266 7.39262 8.05999 7.00186 7.555 7.00186C7.05001 7.00186 6.62734 7.39262 6.62734 7.89063C6.62734 8.38864 7.05001 8.7794 7.555 8.7794Z" fill="#0071BC" stroke="#0071BC" stroke-width="0.3"/>
<path d="M11.014 8.7794C11.519 8.7794 11.9416 8.38864 11.9416 7.89063C11.9416 7.39262 11.519 7.00186 11.014 7.00186C10.509 7.00186 10.0863 7.39262 10.0863 7.89063C10.0863 8.38864 10.509 8.7794 11.014 8.7794Z" fill="#0071BC" stroke="#0071BC" stroke-width="0.3"/>
<path d="M5.12734 22.7364V22.8864H5.27734H21.6081H21.7581V22.7364V13.1323V12.9823H21.6081H5.27734H5.12734V13.1323V22.7364ZM6.36197 14.1702H20.5235V21.6985H6.36197V14.1702Z" fill="#0071BC" stroke="#0071BC" stroke-width="0.3"/>
</svg>
