<svg width="14" height="19" viewBox="0 0 14 19" fill="none" xmlns="http://www.w3.org/2000/svg">
<path d="M8.65138 13.8988C8.65138 13.8991 8.65138 13.8995 9.40138 13.8995H8.65138V17.7135H2.08651C1.35376 17.7135 0.760381 17.1203 0.760381 16.3908L0.76038 16.3901C0.75877 14.6849 0.757159 12.1429 0.755548 9.60068C0.753699 6.68218 0.751849 3.76344 0.75 2.11023C0.75018 1.76335 1.03024 1.4834 1.37716 1.4834H1.39165H1.4062H1.42081H1.43548H1.45022H1.46501H1.47987H1.49478H1.50976H1.5248H1.53989H1.55505H1.57027H1.58554H1.60088H1.61627H1.63172H1.64723H1.6628H1.67843H1.69412H1.70986H1.72566H1.74151H1.75743H1.7734H1.78943H1.80551H1.82165H1.83784H1.85409H1.8704H1.88676H1.90317H1.91965H1.93617H1.95275H1.96938H1.98607H2.00281H2.0196H2.03645H2.05335H2.0703H2.0873H2.10436H2.12147H2.13863H2.15584H2.1731H2.19042H2.20778H2.2252H2.24266H2.26018H2.27775H2.29536H2.31303H2.33074H2.3485H2.36632H2.38418H2.40209H2.42004H2.43805H2.4561H2.4742H2.49235H2.51055H2.52879H2.54707H2.56541H2.58379H2.60222H2.62069H2.63921H2.65777H2.67638H2.69503H2.71373H2.73247H2.75126H2.77008H2.78896H2.80787H2.82683H2.84584H2.86488H2.88397H2.9031H2.92228H2.94149H2.96075H2.98004H2.99938H3.01876H3.03818H3.05765H3.07715H3.09669H3.11627H3.13589H3.15555H3.17525H3.19499H3.21477H3.23458H3.25444H3.27433H3.29426H3.31423H3.33423H3.35428H3.37436H3.39447H3.41463H3.43481H3.45504H3.4753H3.4956H3.51593H3.5363H3.5567H3.57713H3.59761H3.61811H3.63865H3.65922H3.67983H3.70047H3.72114H3.74185H3.76259H3.78336H3.80417H3.825H3.84587H3.86677H3.8877H3.90866H3.92965H3.95068H3.97173H3.99281H4.01393H4.03507H4.05625H4.07745H4.09868H4.11994H4.14123H4.16255H4.1839H4.20527H4.22667H4.2481H4.26956H4.29104H4.31255H4.33409H4.35565H4.37724H4.39886H4.4205H4.44217H4.46386H4.48558H4.50732H4.52909H4.55088H4.5727H4.59454H4.6164H4.63829H4.6602H4.68213H4.70409H4.72607H4.74807H4.77009H4.79214H4.81421H4.8363H4.85841H4.88054H4.90269H4.92486H4.94706H4.96927H4.9915H5.01376H5.03603H5.05832H5.08063H5.10296H5.12531H5.14768H5.17006H5.19246H5.21488H5.23732H5.25978H5.28225H5.30474H5.32724H5.34976H5.3723H5.39486H5.41743H5.44001H5.46261H5.48523H5.50786H5.5305H5.55316H5.57584H5.59852H5.62122H5.64394H5.66667H5.68941H5.71216H5.73493H5.7577H5.78049H5.8033H5.82611H5.84894H5.87177H5.89462H5.91748H5.94035H5.96323H5.98611H6.00901H6.03192H6.05484H6.07777H6.10071H6.12365H6.1466H6.16957H6.19254H6.21551H6.2385H6.26149H6.28449H6.3075H6.33051H6.35353H6.37656H6.39959H6.42263H6.44568H6.46873H6.49178H6.51484H6.53791H6.56098H6.58405H6.60713H6.63021H6.65329H6.67638H6.69947H6.72257H6.74566H6.76876H6.79186H6.81497H6.83807H6.86118H6.88429H6.9074H6.93051H6.95362H6.97673H6.99984H7.02296H7.04607H7.06918H7.09229H7.1154H7.13851H7.16162H7.18472H7.20783H7.23093H7.25403H7.27713H7.30022H7.32331H7.3464H7.36949H7.39257H7.41565H7.43872H7.46179H7.48486H7.50792H7.53097H7.55403H7.57707H7.60011H7.62315H7.64617H7.6692H7.69221H7.71522H7.73822H7.76122H7.7842H7.80718H7.83016H7.85312H7.87607H7.89902H7.92196H7.94489H7.96781H7.99072H8.01362H8.03651H8.0594H8.08227H8.10513H8.12798H8.15082H8.17365H8.19646H8.21927H8.24206H8.26484H8.28761H8.31037H8.33311H8.35584H8.37856H8.40126H8.42395H8.44663H8.46929H8.49194H8.51457H8.53719H8.5598H8.58238H8.60496H8.62751H8.65006H8.67258H8.69509H8.71758H8.74006H8.76252H8.78496H8.80739H8.82979H8.85218H8.87455H8.8969H8.91924H8.94155H8.96385H8.98613H9.00838H9.03062H9.05284H9.07504H9.09722H9.11937H9.14151H9.16362H9.18572H9.20779H9.22984H9.25187H9.27388H9.29586H9.31782H9.33976H9.36168H9.38357H9.40544H9.42728H9.44911H9.4709H9.49268H9.51442H9.53615H9.55785H9.57952H9.60117H9.62279H9.64439H9.66596H9.6875H9.70902H9.73051H9.75197H9.77341H9.79481H9.81619H9.83755H9.85887H9.88017H9.90143H9.92267H9.94388H9.96506H9.98621H10.0073H10.0284H10.0495H10.0705H10.0915H10.1125H10.1334H10.1543H10.1752H10.196H10.2169H10.2376H10.2584H10.2791H10.2998H10.3204H10.341H10.3616H10.3822H10.4027H10.4232H10.4436H10.464H10.4844H10.5047H10.525H10.5453H10.5655H10.5857H10.6059H10.626H10.6461H10.6662H10.6862H10.7062H10.7261H10.746H10.7659H10.7857H10.8055H10.8252H10.8449H10.8646H10.8842H10.9038H10.9234H10.9429H10.9623H10.9818H11.0012H11.0205H11.0398H11.0591H11.0783H11.0975H11.1166H11.1357H11.1548H11.1738H11.1928H11.2117H11.2306H11.2494H11.2682H11.287H11.3057H11.3243H11.343H11.3615H11.3801H11.3985H11.417H11.4354H11.4537H11.472H11.4903H11.5085H11.5266H11.5447H11.5628H11.5808H11.5988H11.6167H11.6346H11.6524H11.6702H11.6879H11.7056H11.7232H11.7408H11.7583H11.7758H11.7932H11.8106H11.8279H11.8452H11.8624H11.8796H11.8967H11.9138H11.9308C12.6601 1.4834 13.2497 2.073 13.25 2.80548C13.2472 5.79592 13.2444 11.1759 13.2434 13.146H9.40484C9.2727 13.146 9.12373 13.1812 8.98674 13.2726C8.85445 13.3608 8.77564 13.473 8.73096 13.5624C8.68774 13.6489 8.66987 13.7263 8.66164 13.7757C8.65722 13.8022 8.65473 13.8259 8.6533 13.8459C8.65257 13.8561 8.6521 13.8656 8.6518 13.8745L8.65148 13.8874L8.65141 13.8935L8.65139 13.8965L8.65139 13.898L8.65138 13.8988Z" stroke="#0071BC" stroke-width="1.5"/>
<path d="M13.8357 14.9453C12.7111 16.0699 11.5831 17.1979 10.4551 18.3225V16.3294C10.4551 15.5647 11.0745 14.9453 11.8392 14.9453H13.8357Z" fill="#0071BC"/>
<path d="M8.53436 4.7373C8.53436 4.73829 8.53435 4.73928 8.53435 4.74027M8.53436 4.7373L5.49128 4.85335C5.49469 4.83106 5.49674 4.81093 5.49798 4.79357C5.49869 4.78352 5.49917 4.77404 5.49946 4.76522L5.49978 4.75236L5.49985 4.74622L5.49987 4.74322L5.49988 4.74174L5.49988 4.741M8.53436 4.7373L8.53435 4.74027M8.53435 4.74027C8.53435 4.78004 8.53435 4.8177 8.53434 4.85335H7.79597C7.79005 4.81473 7.78732 4.77682 7.78732 4.74027V4.85335H5.49988L5.49988 4.741M8.53435 4.74027L8.53436 4.85335V5.4873H7.79592C7.79251 5.50959 7.79046 5.52971 7.78922 5.54707C7.7885 5.55712 7.78803 5.5666 7.78774 5.57542L7.78742 5.58829L7.78734 5.59443L7.78733 5.59743L7.78732 5.59891L7.78732 5.59965M5.49988 4.741L5.49988 4.74027L4.75284 4.74027C5.49988 4.74027 5.49988 4.74064 5.49988 4.741ZM7.78732 5.4873L7.78732 5.59965M7.78732 5.59965L7.78732 5.60038H8.53436C7.78732 5.60038 7.78732 5.60001 7.78732 5.59965ZM4.74988 4.85326V4.85333C4.75056 4.85334 4.75154 4.85335 4.75284 4.85335H4.76034C4.75729 4.85329 4.75476 4.85327 4.75284 4.85326C4.75158 4.85325 4.75058 4.85326 4.74988 4.85326ZM5.49989 5.60335H5.49996C5.49998 5.60157 5.49997 5.59793 5.49988 5.59288V5.60038C5.49988 5.60168 5.49988 5.60266 5.49989 5.60335Z" stroke="#0071BC" stroke-width="1.5"/>
</svg>
