<svg width="16" height="16" viewBox="0 0 16 16" fill="none" xmlns="http://www.w3.org/2000/svg">
<path d="M7.77353 1.25513C7.86337 1.06298 8.13663 1.06298 8.22647 1.25513L9.73938 4.49092C9.98679 5.0201 10.4819 5.39092 11.0593 5.47949L14.5281 6.01153C14.729 6.04234 14.8111 6.28717 14.6695 6.43288L12.0926 9.08434C11.7065 9.48152 11.5313 10.038 11.6201 10.5847L12.2191 14.2706C12.2526 14.4767 12.0336 14.6306 11.851 14.5293L8.84915 12.8635C8.32099 12.5704 7.67901 12.5704 7.15085 12.8635L4.14901 14.5293C3.96643 14.6306 3.74745 14.4767 3.78094 14.2706L4.37985 10.5847C4.46868 10.038 4.29347 9.48152 3.90745 9.08434L1.33049 6.43288C1.18888 6.28717 1.27102 6.04234 1.47187 6.01153L4.94066 5.47949C5.51806 5.39092 6.01321 5.0201 6.26063 4.49092L7.77353 1.25513Z" fill="white" stroke="#0071BC" stroke-width="1.5"/>
</svg>
