<svg width="17" height="9" viewBox="0 0 17 9" fill="none" xmlns="http://www.w3.org/2000/svg">
<path d="M13.5723 7.9048L16.6405 4.95838C17.1198 4.49819 17.1198 3.75192 16.6405 3.29165L13.5723 0.345228C13.2213 0.00815782 12.6935 -0.092649 12.2349 0.0897147C11.7763 0.272157 11.4772 0.701941 11.4772 1.17855L11.4772 2.94641L1.22727 2.9464C0.549492 2.9464 -1.65662e-07 3.47409 -1.967e-07 4.12497C-2.27737e-07 4.77586 0.549492 5.30354 1.22727 5.30354L11.4773 5.30354L11.4773 7.07139C11.4773 7.54808 11.7764 7.97787 12.2349 8.16023C12.6935 8.34267 13.2213 8.24187 13.5723 7.9048Z" fill="white"/>
</svg>
