<svg width="17" height="15" viewBox="0 0 17 15" fill="none" xmlns="http://www.w3.org/2000/svg">
<path d="M8.66168 2.04337C10.5974 0.374513 13.5697 0.637694 15.2873 2.63C17.0049 4.6223 16.8275 7.60088 14.8918 9.26974C13.2516 10.6838 10.8675 10.7106 9.13275 9.4739L3.30806 14.4956C2.83544 14.903 2.10975 14.8388 1.69038 14.3523C1.3762 13.9879 1.32174 13.4884 1.51289 13.0894L1.0556 12.5589L0.860953 12.3332L0.521472 11.9394C0.345757 11.7356 0.36003 11.4342 0.553315 11.2676C0.746599 11.1009 1.04682 11.1312 1.22253 11.335L1.56202 11.7288L1.86297 11.4693L1.52349 11.0755C1.34777 10.8717 1.36204 10.5703 1.55536 10.4037C1.74869 10.237 2.04887 10.2673 2.22459 10.4711L2.56407 10.8648L2.86502 10.6054L2.52554 10.2116C2.34982 10.0078 2.3641 9.70644 2.55742 9.53977C2.75074 9.3731 3.05092 9.40336 3.22664 9.60718L3.56612 10.0009L3.76076 10.2267L4.15779 10.6872L7.61168 7.70952C6.64392 5.81167 7.02152 3.45741 8.66168 2.04337ZM9.80077 7.36014C10.7691 8.48333 12.4388 8.63116 13.5301 7.69031C14.6214 6.74947 14.7211 5.0762 13.7527 3.95301C12.7844 2.82981 11.1147 2.68199 10.0234 3.62283C8.93209 4.56368 8.83242 6.23694 9.80077 7.36014Z" fill="#0071BC"/>
</svg>
