<svg width="20" height="19" viewBox="0 0 20 19" fill="none" xmlns="http://www.w3.org/2000/svg">
<path d="M1.9021 7.22852H3.96586C4.15566 7.22852 4.30936 7.41832 4.30936 7.57202V9.63578C4.30936 9.82558 4.1555 9.97928 3.96586 9.97928H1.9021C1.71229 9.97928 1.55859 9.78948 1.55859 9.63578V7.57202C1.55859 7.38221 1.71245 7.22852 1.9021 7.22852Z" fill="#0071BC"/>
<path d="M1.9021 10.7188H3.96586C4.15566 10.7188 4.30936 10.9086 4.30936 11.0623V13.126C4.30936 13.3158 4.1555 13.4695 3.96586 13.4695H1.9021C1.71229 13.4695 1.55859 13.2797 1.55859 13.126V11.0623C1.55859 10.8724 1.71245 10.7188 1.9021 10.7188Z" fill="#0071BC"/>
<path d="M14.0382 6.98586V3.84575C14.0372 3.33465 13.8377 2.84383 13.4817 2.47715C13.1258 2.11048 12.641 1.89656 12.1302 1.8804V1.29645C12.1114 0.845719 11.8599 0.437197 11.4662 0.217189C11.0726 -0.00281912 10.5929 -0.00281502 10.1991 0.217189C9.80543 0.437193 9.55409 0.845719 9.53512 1.29645V1.87819H8.31671V1.29645C8.29769 0.845719 8.04637 0.437197 7.65271 0.217189C7.25888 -0.00281502 6.77927 -0.00281502 6.38559 0.217189C5.99192 0.437193 5.74046 0.845719 5.7216 1.29645V1.87819H4.50078V1.29645C4.50078 0.833285 4.25361 0.405253 3.85258 0.173752C3.45139 -0.0579173 2.9572 -0.0579173 2.55621 0.173752C2.15502 0.405261 1.90784 0.833285 1.90784 1.29645V1.88056V1.8804C1.3969 1.8959 0.911976 2.10968 0.555849 2.4765C0.199721 2.84333 0.00032721 3.33449 0 3.84575V13.1496C0.00111841 13.6709 0.208822 14.1707 0.577567 14.5394C0.946313 14.9081 1.44607 15.1159 1.96739 15.117H7.29724C8.06909 17.1242 9.84764 18.5715 11.9698 18.9194C14.0921 19.2673 16.2395 18.4638 17.6121 16.8083C18.9847 15.1528 19.3763 12.8934 18.6409 10.8727C17.9056 8.85178 16.1539 7.37247 14.0383 6.98583L14.0382 6.98586ZM12.9525 18.3237C11.528 18.3237 10.1618 17.7578 9.15449 16.7504C8.14729 15.7432 7.58138 14.3771 7.58138 12.9525C7.58138 11.528 8.14729 10.1618 9.15449 9.15449C10.1618 8.14729 11.528 7.58139 12.9525 7.58139C14.3771 7.58139 15.7432 8.14729 16.7504 9.15449C17.7578 10.1618 18.3237 11.528 18.3237 12.9525C18.3224 14.3766 17.7562 15.7421 16.7492 16.7492C15.7421 17.7562 14.3766 18.3224 12.9525 18.3237ZM0.68706 13.1497V6.38829H13.3509V6.9106C13.2182 6.9106 13.0875 6.89686 12.9525 6.89686V6.8967C11.2044 6.89622 9.54182 7.65321 8.39441 8.97195V7.57235C8.39441 7.38271 8.24055 7.22885 8.05091 7.22885H5.9894C5.79975 7.22885 5.64589 7.38271 5.64589 7.57235V9.63386C5.64589 9.82351 5.79975 9.97736 5.9894 9.97736H7.6729C7.53725 10.2161 7.41854 10.464 7.31788 10.7195H5.98716C5.79735 10.7195 5.64366 10.8734 5.64366 11.063V13.1245C5.64366 13.3143 5.79735 13.468 5.98716 13.468H6.91942C6.94579 13.7919 6.99947 14.1131 7.07968 14.4278H1.96742C1.62839 14.4271 1.30343 14.2925 1.06359 14.053C0.823609 13.8135 0.688283 13.4886 0.687007 13.1498L0.68706 13.1497ZM3.20666 4.75265C3.55033 4.75201 3.87977 4.61525 4.12265 4.37224C4.36566 4.12923 4.50242 3.79978 4.50306 3.45625V2.56522H5.72388V3.45625C5.7429 3.90682 5.99422 4.31534 6.38787 4.53535C6.78171 4.75536 7.26132 4.75536 7.655 4.53535C8.04867 4.31535 8.30001 3.90682 8.31899 3.45625V2.56522H9.53756V3.45625C9.55641 3.90682 9.80789 4.31534 10.2016 4.53535C10.5952 4.75536 11.0749 4.75536 11.4686 4.53535C11.8624 4.31535 12.1137 3.90682 12.1325 3.45625V2.56747C12.4612 2.58344 12.7711 2.72484 12.9983 2.96274C13.2255 3.20064 13.3527 3.51667 13.3534 3.84564V5.70088H0.68704V3.84564C0.687838 3.51667 0.815015 3.20062 1.04221 2.96274C1.2694 2.72484 1.57937 2.58345 1.90785 2.56747V3.45625C1.90848 3.79976 2.04525 4.1292 2.28826 4.37224C2.53127 4.61527 2.86071 4.75201 3.20437 4.75265H3.20666Z" fill="#0071BC"/>
<path d="M12.9995 10.6913C13.6176 10.6913 14.1205 11.0872 14.1205 11.5739C14.1205 11.8741 14.4294 12.1173 14.8107 12.1173C15.192 12.1173 15.4996 11.8741 15.4996 11.5739C15.4996 10.6778 14.7307 9.92876 13.6894 9.69116V9.54246C13.6894 9.24224 13.3805 9 12.9992 9C12.6179 9 12.3103 9.24317 12.3103 9.54246V9.69116C11.2681 9.92872 10.5 10.6778 10.5 11.5739C10.5 12.6597 11.621 13.5426 13.0005 13.5426C13.6185 13.5426 14.1214 13.9385 14.1214 14.4252C14.1214 14.9119 13.6186 15.3078 13.0005 15.3078C12.3824 15.3078 11.8795 14.9119 11.8795 14.4252C11.8795 14.125 11.5706 13.8818 11.1905 13.8818C10.8092 13.8818 10.5004 14.125 10.5004 14.4252C10.5004 15.3212 11.2693 16.0703 12.3106 16.3079V16.4566C12.3106 16.7568 12.6195 17 12.9996 17C13.3801 17 13.6897 16.7568 13.6897 16.4566V16.3079C14.7319 16.0703 15.5 15.3212 15.5 14.4252C15.5 13.34 14.379 12.4565 12.9995 12.4565C12.3815 12.4565 11.8786 12.0605 11.8786 11.5739C11.8786 11.0872 12.3814 10.6913 12.9995 10.6913Z" fill="#0071BC"/>
</svg>
